<svg width="15" height="16" viewBox="0 0 15 16" fill="none" xmlns="http://www.w3.org/2000/svg">
<path d="M12.2217 1.70801H11.7467V1.18972C11.7467 0.533428 11.2288 0 10.5915 0C9.95386 0 9.43644 0.533428 9.43644 1.18972V1.70757H8.25104V1.18972C8.25104 0.533428 7.73319 0 7.09593 0C6.45867 0 5.94082 0.533428 5.94082 1.18972V1.70757H4.75542V1.18972C4.75542 0.533428 4.23757 0 3.60031 0C2.96305 0 2.4452 0.533428 2.4452 1.18972V1.70757H1.83866C0.825018 1.70757 0 2.53259 0 3.54623V13.9293C0 14.9429 0.825018 15.7679 1.83866 15.7679H12.2217C13.2358 15.7679 14.0603 14.9429 14.0603 13.9293V3.54623C14.0603 2.53302 13.2353 1.70801 12.2217 1.70801ZM10.0854 1.18972C10.0854 0.891642 10.3125 0.648939 10.5915 0.648939C10.871 0.648939 11.0977 0.891642 11.0977 1.18972V3.30786C11.0977 3.60594 10.871 3.84864 10.5915 3.84864C10.3125 3.84864 10.0854 3.60594 10.0854 3.30786V1.18972ZM6.58976 1.18972C6.58976 0.891642 6.81689 0.648939 7.09593 0.648939C7.37497 0.648939 7.6021 0.891642 7.6021 1.18972V3.30786C7.6021 3.60594 7.37497 3.84864 7.09593 3.84864C6.81689 3.84864 6.58976 3.60594 6.58976 3.30786V1.18972ZM3.09371 1.18972C3.09371 0.891642 3.32084 0.648939 3.59988 0.648939C3.87892 0.648939 4.10605 0.891642 4.10605 1.18972V3.30786C4.10605 3.60594 3.87892 3.84864 3.59988 3.84864C3.32084 3.84864 3.09371 3.60594 3.09371 3.30786V1.18972ZM12.9788 13.9297C12.9788 14.3472 12.6392 14.6868 12.2217 14.6868H1.83866C1.42118 14.6868 1.08156 14.3472 1.08156 13.9297V4.41192H12.9788V13.9297Z" fill="#A3A3A3"/>
<path d="M4.04285 6.32764H2.05493V8.09664H4.04285V6.32764Z" fill="#A3A3A3"/>
<path d="M6.69654 6.32764H4.70819V8.09664H6.69654V6.32764Z" fill="#A3A3A3"/>
<path d="M9.35169 6.32764H7.36377V8.09664H9.35169V6.32764Z" fill="#A3A3A3"/>
<path d="M12.0054 6.32764H10.017V8.09664H12.0054V6.32764Z" fill="#A3A3A3"/>
<path d="M4.04285 8.68884H2.05493V10.4566H4.04285V8.68884Z" fill="#A3A3A3"/>
<path d="M6.69654 8.68884H4.70819V10.4566H6.69654V8.68884Z" fill="#A3A3A3"/>
<path d="M9.35169 8.68884H7.36377V10.4566H9.35169V8.68884Z" fill="#A3A3A3"/>
<path d="M12.0054 8.68884H10.017V10.4566H12.0054V8.68884Z" fill="#A3A3A3"/>
<path d="M4.04285 11.0493H2.05493V12.817H4.04285V11.0493Z" fill="#A3A3A3"/>
<path d="M6.69654 11.0493H4.70819V12.817H6.69654V11.0493Z" fill="#A3A3A3"/>
<path d="M9.35169 11.0493H7.36377V12.817H9.35169V11.0493Z" fill="#A3A3A3"/>
<path d="M12.0054 11.0493H10.017V12.817H12.0054V11.0493Z" fill="#A3A3A3"/>
</svg>
