<svg width="10" height="10" viewBox="0 0 10 10" fill="none" xmlns="http://www.w3.org/2000/svg">
<path d="M4.99996 0C2.23831 0 0 2.23831 0 5.00004C0 7.76169 2.23831 10.0001 4.99996 10.0001C7.7616 10.0001 10 7.76169 10 5.00004C10 2.23831 7.7616 0 4.99996 0ZM5.37739 9.22763V8.89151C5.37739 8.68289 5.20857 8.51416 5.00004 8.51416C4.79143 8.51416 4.62269 8.68298 4.62269 8.89151V9.22763C2.57863 9.04659 0.946989 7.41128 0.771564 5.36562H1.0968C1.30533 5.36562 1.47415 5.19679 1.47415 4.98827C1.47415 4.77965 1.30533 4.61092 1.0968 4.61092H0.77326C0.959213 2.57622 2.5864 0.952789 4.62269 0.772457V1.08494C4.62269 1.29356 4.79143 1.46229 5.00004 1.46229C5.20866 1.46229 5.37739 1.29356 5.37739 1.08494V0.772368C7.4136 0.9527 9.04088 2.57613 9.22674 4.61083H8.90329C8.69467 4.61083 8.52594 4.77956 8.52594 4.98818C8.52594 5.19679 8.69476 5.36553 8.90329 5.36553H9.22853C9.0531 7.41128 7.42146 9.04659 5.37739 9.22763Z" fill="white"/>
<path d="M7.24806 2.56388L5.01278 4.90606C5.00858 4.90597 5.0043 4.90543 5.00002 4.90543C4.97209 4.90543 4.94479 4.90829 4.91828 4.91347L3.0476 3.49999C2.92375 3.4071 2.74618 3.43074 2.65177 3.55602C2.55746 3.67987 2.58182 3.85815 2.7071 3.95247L4.57725 5.3655C4.59528 5.58322 4.77757 5.75454 4.99993 5.75454C5.23433 5.75454 5.42448 5.5643 5.42448 5.32999C5.42448 5.31874 5.42368 5.30777 5.42279 5.29679L7.65762 2.95453C7.76532 2.84103 7.76157 2.66257 7.64816 2.55434C7.53546 2.44601 7.35629 2.45119 7.24806 2.56388Z" fill="white"/>
</svg>
